<?xml version="1.0" encoding="UTF-8"?>
<svg width="13px" height="20px" viewBox="0 0 13 20" version="1.1" xmlns="http://www.w3.org/2000/svg" xmlns:xlink="http://www.w3.org/1999/xlink">
    <!-- Generator: Sketch 50.2 (55047) - http://www.bohemiancoding.com/sketch -->
    <title>Fill 265</title>
    <desc>Created with Sketch.</desc>
    <defs></defs>
    <g id="Symbols" stroke="none" stroke-width="1" fill="none" fill-rule="evenodd">
        <g id="fa-chevron-left" fill="#FFFFFF">
            <path d="M0.24749499,10.5559131 L9.55811623,19.7554577 C9.71543086,19.9118856 9.89579158,20 10.1212425,20 C10.3236473,20 10.5260521,19.9118856 10.6833667,19.7554577 L12.752505,17.7110044 C12.9318637,17.5555666 13,17.3555765 13,17.1555864 C13,16.9338152 12.9318637,16.7556062 12.752505,16.5783872 L6.09519038,10.000495 L12.752505,3.42260284 C12.9318637,3.26716499 13,3.06717489 13,2.86718479 C13,2.64442354 12.9318637,2.46720459 12.752505,2.31176674 L10.6833667,0.244542349 C10.5260521,0.0891044998 10.3236473,0 10.1212425,0 C9.89579158,0 9.71543086,0.0891044998 9.55811623,0.244542349 L0.24749499,9.44507698 C0.0671342685,9.60051483 0,9.77773378 0,10.000495 C0,10.2222662 0.0671342685,10.4004752 0.24749499,10.5559131" id="Fill-265"></path>
        </g>
    </g>
</svg>