<?xml version="1.0" encoding="UTF-8"?>
<svg width="40px" height="40px" viewBox="0 0 40 40" version="1.1" xmlns="http://www.w3.org/2000/svg" xmlns:xlink="http://www.w3.org/1999/xlink">
    <!-- Generator: Sketch 50.2 (55047) - http://www.bohemiancoding.com/sketch -->
    <title>icon-dismiss</title>
    <desc>Created with Sketch.</desc>
    <defs></defs>
    <g id="icon-dismiss" stroke="none" stroke-width="1" fill="none" fill-rule="evenodd">
        <circle id="circle" fill="#C9C9C9" cx="20" cy="20" r="20"></circle>
        <path d="M20,16.1176471 L25.1764706,10.9411765 C26.2485527,9.86909431 27.9867414,9.86909431 29.0588235,10.9411765 C30.1309057,12.0132586 30.1309057,13.7514473 29.0588235,14.8235294 L23.8823529,20 L29.0588235,25.1764706 C30.1309057,26.2485527 30.1309057,27.9867414 29.0588235,29.0588235 C27.9867414,30.1309057 26.2485527,30.1309057 25.1764706,29.0588235 L20,23.8823529 L14.8235294,29.0588235 C13.7514473,30.1309057 12.0132586,30.1309057 10.9411765,29.0588235 C9.86909431,27.9867414 9.86909431,26.2485527 10.9411765,25.1764706 L16.1176471,20 L10.9411765,14.8235294 C9.86909431,13.7514473 9.86909431,12.0132586 10.9411765,10.9411765 C12.0132586,9.86909431 13.7514473,9.86909431 14.8235294,10.9411765 L20,16.1176471 Z" id="cross" fill="#4A4A4A"></path>
    </g>
</svg>