<?xml version="1.0" encoding="UTF-8"?>
<svg width="13px" height="7px" viewBox="0 0 13 7" version="1.1" xmlns="http://www.w3.org/2000/svg" xmlns:xlink="http://www.w3.org/1999/xlink">
    <!-- Generator: Sketch 50.2 (55047) - http://www.bohemiancoding.com/sketch -->
    <title>Fill 202</title>
    <desc>Created with Sketch.</desc>
    <defs></defs>
    <g id="Symbols" stroke="none" stroke-width="1" fill="none" fill-rule="evenodd">
        <g id="fa-caret-down" fill="#4A4A4A">
            <g id="Fill-202">
                <path d="M0.250526644,1.33004858 L5.94265429,6.76002776 C6.10189592,6.91256072 6.28345167,7 6.5116642,7 C6.71654833,7 6.92143247,6.91256072 7.0806741,6.76002776 L12.7717875,1.33004858 C12.9310291,1.17751561 13,0.981263012 13,0.785010409 C13,0.567383761 12.9310291,0.392505205 12.7717875,0.239972241 C12.6125458,0.0874392783 12.4076617,0 12.2027776,0 L0.819536553,0 C0.592338301,0 0.409768277,0.0874392783 0.250526644,0.239972241 C0.0912850121,0.392505205 -2.84217094e-14,0.567383761 -2.84217094e-14,0.785010409 C-2.84217094e-14,0.981263012 0.0912850121,1.17751561 0.250526644,1.33004858"></path>
            </g>
        </g>
    </g>
</svg>