<?xml version="1.0" encoding="UTF-8"?>
<svg width="23px" height="18px" viewBox="0 0 23 18" version="1.1" xmlns="http://www.w3.org/2000/svg" xmlns:xlink="http://www.w3.org/1999/xlink">
    <!-- Generator: Sketch 50.2 (55047) - http://www.bohemiancoding.com/sketch -->
    <title>Fill 36</title>
    <desc>Created with Sketch.</desc>
    <defs></defs>
    <g id="Symbols" stroke="none" stroke-width="1" fill="none" fill-rule="evenodd">
        <g id="fa-edit-dark" fill="#4A4A4A">
            <path d="M1.318,16.628 C2.036,17.324 2.867,17.683 3.877,17.683 L14.269,17.683 C15.279,17.683 16.11,17.324 16.828,16.628 C17.524,15.91 17.883,15.079 17.883,14.069 L17.883,11.69 C17.883,11.51 17.793,11.398 17.636,11.331 C17.479,11.263 17.322,11.286 17.21,11.421 L16.401,12.229 C16.334,12.296 16.289,12.386 16.289,12.498 L16.289,14.069 C16.289,14.63 16.087,15.102 15.706,15.506 C15.302,15.887 14.83,16.089 14.291,16.089 L3.854,16.089 C3.316,16.089 2.844,15.887 2.44,15.506 C2.059,15.102 1.857,14.63 1.857,14.092 L1.857,3.654 C1.857,3.116 2.059,2.644 2.44,2.24 C2.844,1.859 3.316,1.657 3.854,1.657 L14.291,1.657 C14.471,1.657 14.651,1.679 14.853,1.724 C15.01,1.791 15.122,1.747 15.257,1.634 L15.863,1.028 C15.952,0.916 15.997,0.804 15.975,0.669 C15.952,0.534 15.885,0.422 15.751,0.377 C15.302,0.175 14.808,0.063 14.291,0.063 L3.877,0.063 C2.867,0.063 2.036,0.422 1.318,1.118 C0.622,1.836 0.263,2.667 0.263,3.677 L0.263,14.069 C0.263,15.079 0.622,15.91 1.318,16.628 L1.318,16.628 Z M11.89,14.473 L20.285,6.056 L16.693,2.465 L8.276,10.859 L8.276,14.473 L11.89,14.473 L11.89,14.473 Z M9.488,11.376 L10.925,9.917 L12.833,11.825 L11.374,13.261 L10.678,13.261 L10.678,12.071 L9.488,12.071 L9.488,11.376 L9.488,11.376 Z M12.092,8.66 L16.469,4.283 C16.626,4.126 16.761,4.126 16.895,4.26 C17.03,4.395 17.007,4.53 16.873,4.664 L12.496,9.064 C12.361,9.198 12.204,9.198 12.092,9.064 C11.957,8.929 11.957,8.794 12.092,8.66 L12.092,8.66 Z M21.093,5.27 L22.237,4.103 C22.484,3.879 22.596,3.587 22.596,3.25 C22.596,2.936 22.484,2.644 22.237,2.42 L20.329,0.512 C20.105,0.288 19.813,0.153 19.499,0.153 C19.162,0.153 18.87,0.288 18.646,0.512 L17.479,1.657 L21.093,5.27 L21.093,5.27 Z" id="Fill-36"></path>
        </g>
    </g>
</svg>