<?xml version="1.0" encoding="UTF-8"?>
<svg width="23px" height="23px" viewBox="0 0 37 37" version="1.1" xmlns="http://www.w3.org/2000/svg" xmlns:xlink="http://www.w3.org/1999/xlink">
    <!-- Generator: Sketch 50.2 (55047) - http://www.bohemiancoding.com/sketch -->
    <title>Fill 24</title>
    <desc>Created with Sketch.</desc>
    <defs></defs>
    <g id="Symbols" stroke="none" stroke-width="1" fill="none" fill-rule="evenodd">
        <g id="fa-info-circle-large" fill="#FFFFFF">
            <path d="M9.19614265,34.5351306 C12.0448118,36.177735 15.1531503,37 18.5211582,37 C21.8449262,37 24.9551882,36.177735 27.8038574,34.5351306 C30.61021,32.8501613 32.8549075,30.6028937 34.5379497,27.7933278 C36.1786754,24.9394712 37,21.8275736 37,18.5 C37,15.1281357 36.1786754,12.0162382 34.5379497,9.20667222 C32.8549075,6.35474133 30.61021,4.14983866 27.8038574,2.46294369 C24.9551882,0.822265015 21.8449262,0 18.5211582,0 C15.1531503,0 12.0448118,0.822265015 9.19614265,2.46294369 C6.38978998,4.14983866 4.14509253,6.35474133 2.46012685,9.20667222 C0.819401123,12.0162382 0,15.1281357 0,18.5 C0,21.8275736 0.819401123,24.9394712 2.46012685,27.7933278 C4.14509253,30.6028937 6.38978998,32.8501613 9.19614265,34.5351306 L9.19614265,34.5351306 Z M12.3467977,26.1930884 C12.3467977,25.9774123 12.4333541,25.8041012 12.5641506,25.63079 C12.6930235,25.5017695 12.9084529,25.415114 13.1238823,25.415114 L15.4128197,25.415114 L15.4128197,17.7220256 L13.1238823,17.7220256 C12.9084529,17.7220256 12.6930235,17.63537 12.5641506,17.5063495 C12.4333541,17.3330384 12.3467977,17.1597273 12.3467977,16.9440512 L12.3467977,13.0965442 C12.3467977,12.8808681 12.4333541,12.665192 12.5641506,12.5342459 C12.6930235,12.4052254 12.9084529,12.3185698 13.1238823,12.3185698 L20.8100957,12.3185698 C21.069765,12.3185698 21.2409545,12.4052254 21.3717509,12.5342459 C21.5429403,12.665192 21.5871803,12.8808681 21.5871803,13.0965442 L21.5871803,25.415114 L23.9184342,25.415114 C24.1338636,25.415114 24.3069765,25.5017695 24.4800894,25.63079 C24.6089624,25.8041012 24.6955188,25.9774123 24.6955188,26.1930884 L24.6955188,30.0405954 C24.6955188,30.2562715 24.6089624,30.4719475 24.4800894,30.6028937 C24.3069765,30.7319142 24.1338636,30.8185698 23.9184342,30.8185698 L13.1238823,30.8185698 C12.9084529,30.8185698 12.6930235,30.7319142 12.5641506,30.6028937 C12.4333541,30.4719475 12.3467977,30.2562715 12.3467977,30.0405954 L12.3467977,26.1930884 L12.3467977,26.1930884 Z M15.4128197,4.62548142 C15.4128197,4.40980535 15.4993762,4.1922036 15.6282491,4.0631831 C15.7590455,3.93416259 15.9744749,3.84750703 16.1899043,3.84750703 L20.8100957,3.84750703 C21.0255251,3.84750703 21.198638,3.93416259 21.3717509,4.0631831 C21.5006238,4.1922036 21.5871803,4.40980535 21.5871803,4.62548142 L21.5871803,8.47106277 C21.5871803,8.68866452 21.5006238,8.90434058 21.3717509,9.03336109 C21.198638,9.16430728 21.0255251,9.24903716 20.8100957,9.24903716 L16.1899043,9.24903716 C15.9744749,9.24903716 15.7590455,9.16430728 15.6282491,9.03336109 C15.4993762,8.90434058 15.4128197,8.68866452 15.4128197,8.47106277 L15.4128197,4.62548142 L15.4128197,4.62548142 Z" id="Fill-24"></path>
        </g>
    </g>
</svg>