<?xml version="1.0" encoding="UTF-8"?>
<svg width="19px" height="19px" viewBox="0 0 19 19" version="1.1" xmlns="http://www.w3.org/2000/svg" xmlns:xlink="http://www.w3.org/1999/xlink">
    <!-- Generator: Sketch 50.2 (55047) - http://www.bohemiancoding.com/sketch -->
    <title>Fill 19</title>
    <desc>Created with Sketch.</desc>
    <defs></defs>
    <g id="Symbols" stroke="none" stroke-width="1" fill="none" fill-rule="evenodd">
        <g id="fa-caret-square-o-right" fill="#FFFFFF">
            <path d="M1.04205656,17.9579434 C1.75223539,18.6454044 2.5720524,19 3.56966105,19 L15.4313267,19 C16.4289353,19 17.2487523,18.6454044 17.9579434,17.9579434 C18.6454044,17.2477646 19,16.4279476 19,15.4303389 L19,3.56867332 C19,2.5720524 18.6454044,1.75124766 17.9579434,1.04205656 C17.2487523,0.35459555 16.4289353,0 15.4313267,0 L3.56966105,0 C2.5720524,0 1.75223539,0.35459555 1.04205656,1.04205656 C0.355583281,1.75124766 0,2.5720524 0,3.56867332 L0,15.4303389 C0,16.4279476 0.355583281,17.2477646 1.04205656,17.9579434 L1.04205656,17.9579434 Z M3.17061759,3.56867332 C3.17061759,3.45804741 3.2150655,3.3474215 3.2812435,3.2812435 C3.34840923,3.21407777 3.45903514,3.16962986 3.56966105,3.16962986 L15.4313267,3.16962986 C15.5419526,3.16962986 15.6525785,3.21407777 15.7187565,3.2812435 C15.7859222,3.3474215 15.8303701,3.45804741 15.8303701,3.56867332 L15.8303701,15.4303389 C15.8303701,15.5409649 15.7859222,15.6515908 15.7187565,15.7187565 C15.6525785,15.7849345 15.5419526,15.8293824 15.4313267,15.8293824 L3.56966105,15.8293824 C3.45903514,15.8293824 3.34840923,15.7849345 3.2812435,15.7187565 C3.2150655,15.6515908 3.17061759,15.5409649 3.17061759,15.4303389 L3.17061759,3.56867332 L3.17061759,3.56867332 Z M6.76200873,14.1660428 C7.05042628,14.2993866 7.33884383,14.2776565 7.58281347,14.0998648 L13.124974,10.1311603 C13.3472136,9.9760865 13.4578395,9.77656477 13.4578395,9.48913496 C13.4578395,9.22244749 13.3472136,9.02292576 13.124974,8.84612185 L7.58281347,4.89914743 C7.33884383,4.72234352 7.05042628,4.6996257 6.76200873,4.83296943 C6.47457891,4.98804325 6.34123518,5.20929507 6.34123518,5.54216053 L6.34123518,13.4568517 C6.34123518,13.7897172 6.47457891,14.010969 6.76200873,14.1660428 L6.76200873,14.1660428 Z" id="Fill-19"></path>
        </g>
    </g>
</svg>