<?xml version="1.0" encoding="UTF-8"?>
<svg width="23px" height="23px" viewBox="0 0 23 23" version="1.1" xmlns="http://www.w3.org/2000/svg" xmlns:xlink="http://www.w3.org/1999/xlink">
    <!-- Generator: Sketch 50.2 (55047) - http://www.bohemiancoding.com/sketch -->
    <title>Fill 110</title>
    <desc>Created with Sketch.</desc>
    <defs></defs>
    <g id="Symbols" stroke="none" stroke-width="1" fill="none" fill-rule="evenodd">
        <g id="fa-gear-(alias)" fill="#FFFFFF">
            <path d="M0.10761073,13.4716677 C0.18772094,13.5792784 0.29533167,13.6330838 0.429247245,13.6605843 L3.16614681,14.062331 C3.3275629,14.5453837 3.51528384,15.0559368 3.78431067,15.5389894 C3.62289457,15.8068205 3.35386775,16.1559576 2.97842587,16.6127053 C2.62928883,17.0682574 2.36145768,17.3910896 2.22754211,17.6051154 C2.14623622,17.7127261 2.09243086,17.8203369 2.09243086,17.9542524 C2.09243086,18.088168 2.14623622,18.1957787 2.20004159,18.3033895 C2.60298399,18.8402475 3.40767311,19.6712414 4.66911,20.7987627 C4.77672073,20.9326783 4.91063631,20.9864837 5.04455188,20.9864837 C5.20596798,20.9864837 5.31357871,20.9326783 5.42118944,20.8525681 L7.54112082,19.2419942 C7.94406321,19.4572156 8.3996153,19.6174361 8.88266791,19.7788522 L9.31191516,22.5432522 C9.31191516,22.6771678 9.39322104,22.7847785 9.47333125,22.8660844 C9.58094198,22.9461946 9.71485756,23 9.84877313,23 L13.1775317,23 C13.4716677,23 13.6330838,22.8660844 13.713194,22.5707528 C13.8483053,22.0877001 13.9822208,21.1478998 14.1436369,19.7788522 C14.599189,19.6449366 15.0559368,19.4572156 15.485184,19.2156893 L17.55131,20.8525681 C17.6852256,20.9326783 17.8203369,20.9864837 17.9542524,20.9864837 C18.1682782,20.9864837 18.625026,20.6110418 19.3496049,19.9127677 C20.0741838,19.1881888 20.584737,18.6513308 20.8525681,18.3033895 C20.9326783,18.1957787 20.9864837,18.088168 20.9864837,17.9542524 C20.9864837,17.8203369 20.9326783,17.6852256 20.8262633,17.5788106 C20.1016843,16.6928156 19.5648264,15.9945415 19.2156893,15.5114889 C19.4297151,15.136047 19.6174361,14.6792992 19.8063527,14.1436369 L22.5695571,13.713194 C22.7046683,13.713194 22.8122791,13.6330838 22.8923893,13.5254731 C22.9724995,13.419058 23,13.3114473 23,13.176336 L23,9.87627365 C23,9.7411624 22.9724995,9.63474735 22.8923893,9.52713662 C22.8122791,9.41952589 22.7046683,9.36572052 22.5695571,9.33941568 L19.8326575,8.91016843 C19.6712414,8.42711582 19.4572156,7.94406321 19.2156893,7.46101061 C19.3771054,7.19198378 19.6449366,6.84284675 20.0203785,6.38729466 C20.3695155,5.93054689 20.6373466,5.60891038 20.7724579,5.39368892 C20.8525681,5.28607819 20.9063735,5.17966313 20.9063735,5.04455188 C20.9063735,4.91063631 20.8525681,4.80302558 20.7987627,4.72291537 C20.4233209,4.21355791 19.6174361,3.35386775 18.3296943,2.17373674 C18.1957787,2.06612601 18.088168,2.01232065 17.9542524,2.01232065 C17.7928363,2.01232065 17.6852256,2.06612601 17.5788106,2.14623622 L15.4576835,3.75681015 C15.0559368,3.54278436 14.599189,3.38136827 14.1161364,3.21995217 L13.713194,0.45555209 C13.713194,0.321636515 13.6330838,0.214025785 13.5529736,0.133915575 C13.4453629,0.0538053649 13.3114473,0 13.1775317,0 L9.84877313,0 C9.55344146,0 9.39322104,0.133915575 9.31191516,0.429247245 C9.17799958,0.912299854 9.04408401,1.85090455 8.88266791,3.21995217 C8.3996153,3.35386775 7.94406321,3.54278436 7.5136203,3.78431067 L5.44749428,2.17373674 C5.31357871,2.06612601 5.17966313,2.01232065 5.04455188,2.01232065 C4.8305261,2.01232065 4.34747349,2.38776253 3.62289457,3.0860366 C2.89831566,3.81061551 2.41526305,4.34747349 2.14623622,4.69661052 C2.06612601,4.8305261 2.01232065,4.96444167 2.01232065,5.04455188 C2.01232065,5.17966313 2.06612601,5.28607819 2.17373674,5.42118944 C2.84451029,6.22587856 3.38136827,6.92415263 3.78431067,7.48731545 C3.51528384,7.94406321 3.3275629,8.3996153 3.19364733,8.85636307 L0.401746725,9.28561031 C0.29533167,9.28561031 0.18772094,9.36572052 0.10761073,9.47333125 C0.0263048451,9.58094198 0,9.68855271 0,9.82246829 L0,13.1237263 C0,13.2576419 0.0263048451,13.3652527 0.10761073,13.4716677 L0.10761073,13.4716677 Z M11.5131524,7.67503639 C12.5593679,7.67503639 13.4716677,8.05047827 14.2237471,8.8025577 C14.9483261,9.55344146 15.3237679,10.4394365 15.3237679,11.4868476 C15.3237679,12.5593679 14.9483261,13.4453629 14.2237471,14.1962466 C13.4716677,14.9483261 12.5593679,15.3237679 11.5131524,15.3237679 C10.4657413,15.3237679 9.55344146,14.9483261 8.8025577,14.1962466 C8.05047827,13.4453629 7.67503639,12.5593679 7.67503639,11.4868476 C7.67503639,10.4394365 8.05047827,9.55344146 8.8025577,8.8025577 C9.55344146,8.05047827 10.4657413,7.67503639 11.5131524,7.67503639 L11.5131524,7.67503639 Z" id="Fill-110"></path>
        </g>
    </g>
</svg>