<?xml version="1.0" encoding="UTF-8"?>
<svg width="18px" height="19px" viewBox="0 0 18 19" version="1.1" xmlns="http://www.w3.org/2000/svg" xmlns:xlink="http://www.w3.org/1999/xlink">
    <!-- Generator: Sketch 50.2 (55047) - http://www.bohemiancoding.com/sketch -->
    <title>Fill 68</title>
    <desc>Created with Sketch.</desc>
    <defs></defs>
    <g id="Symbols" stroke="none" stroke-width="1" fill="none" fill-rule="evenodd">
        <g id="fa-trash-o" fill="#4A4A4A">
            <path d="M0.114415437,4.63875299 C0.183881952,4.70599563 0.298297389,4.74950557 0.412712826,4.74950557 L1.62837684,4.74950557 L1.62837684,16.5357552 C1.62837684,17.2022484 1.83473326,17.8014989 2.22395006,18.267253 C2.63666288,18.755751 3.11884222,19 3.66844495,19 L14.3315551,19 C14.8811578,19 15.3633371,18.755751 15.7760499,18.2454981 C16.1652667,17.7570001 16.3716232,17.1577496 16.3716232,16.4695014 L16.3716232,4.74950557 L17.5872872,4.74950557 C17.7017026,4.74950557 17.816118,4.70599563 17.8855846,4.63875299 C17.9540295,4.57249922 18,4.46174664 18,4.3500052 L18,3.57374831 C18,3.46299573 17.9540295,3.35125429 17.8855846,3.28500052 C17.816118,3.21874675 17.7017026,3.17424794 17.5872872,3.17424794 L13.6430193,3.17424794 L12.7491487,1.11049235 C12.6347333,0.799000729 12.3824064,0.532996773 12.0606129,0.333246591 C11.7173666,0.110752576 11.3965948,0 11.0523269,0 L6.9476731,0 C6.60340522,0 6.28263337,0.110752576 5.93836549,0.333246591 C5.61759364,0.532996773 5.36526674,0.799000729 5.25085131,1.11049235 L4.3569807,3.17424794 L0.412712826,3.17424794 C0.298297389,3.17424794 0.183881952,3.21874675 0.114415437,3.28500052 C0.0459704881,3.35125429 0,3.46299573 0,3.57374831 L0,4.3500052 C0,4.46174664 0.0459704881,4.57249922 0.114415437,4.63875299 L0.114415437,4.63875299 Z M3.25573212,4.74950557 L14.7442679,4.74950557 L14.7442679,16.4912564 C14.7442679,16.6692516 14.7207719,16.824503 14.6523269,16.9797543 C14.5828604,17.1350057 14.5379115,17.2457583 14.4684449,17.3130009 C14.4,17.3792547 14.3540295,17.4237535 14.3315551,17.4237535 L3.66844495,17.4237535 C3.64597049,17.4237535 3.6,17.3792547 3.53155505,17.3130009 C3.46208854,17.2457583 3.41611805,17.1350057 3.3476731,16.9797543 C3.27922815,16.824503 3.25573212,16.6692516 3.25573212,16.4912564 L3.25573212,4.74950557 L3.25573212,4.74950557 Z M5.02202043,14.9377537 C5.09046538,15.0040075 5.20488082,15.0485063 5.31929625,15.0485063 L6.12224745,15.0485063 C6.23666288,15.0485063 6.35107832,15.0040075 6.42054484,14.9377537 C6.48898978,14.8714999 6.53496027,14.7607474 6.53496027,14.6490059 L6.53496027,7.52425315 C6.53496027,7.41350057 6.48898978,7.302748 6.42054484,7.23649422 C6.35107832,7.16925159 6.23666288,7.12475278 6.12224745,7.12475278 L5.31929625,7.12475278 C5.20488082,7.12475278 5.09046538,7.16925159 5.02202043,7.23649422 C4.95255392,7.302748 4.90658343,7.41350057 4.90658343,7.52425315 L4.90658343,14.6490059 C4.90658343,14.7607474 4.95255392,14.8714999 5.02202043,14.9377537 L5.02202043,14.9377537 Z M6.76481271,1.70875403 C6.80976163,1.64250026 6.87922815,1.59800146 6.97116913,1.57624649 L11.0288309,1.57624649 C11.1207719,1.59800146 11.1902384,1.64250026 11.2586833,1.70875403 L11.8777526,3.17424794 L6.12224745,3.17424794 L6.76481271,1.70875403 L6.76481271,1.70875403 Z M8.30022701,14.9377537 C8.36969353,15.0040075 8.48410897,15.0485063 8.5985244,15.0485063 L9.4014756,15.0485063 C9.51589103,15.0485063 9.63030647,15.0040075 9.69977299,14.9377537 C9.76821793,14.8714999 9.81418842,14.7607474 9.81418842,14.6490059 L9.81418842,7.52425315 C9.81418842,7.41350057 9.76821793,7.302748 9.69977299,7.23649422 C9.63030647,7.16925159 9.51589103,7.12475278 9.4014756,7.12475278 L8.5985244,7.12475278 C8.48410897,7.12475278 8.36969353,7.16925159 8.30022701,7.23649422 C8.23178207,7.302748 8.18581158,7.41350057 8.18581158,7.52425315 L8.18581158,14.6490059 C8.18581158,14.7607474 8.23178207,14.8714999 8.30022701,14.9377537 L8.30022701,14.9377537 Z M11.5794552,14.9377537 C11.6479001,15.0040075 11.7633371,15.0485063 11.8777526,15.0485063 L12.6796822,15.0485063 C12.7951192,15.0485063 12.9095346,15.0040075 12.9779796,14.9377537 C13.0474461,14.8714999 13.0934166,14.7607474 13.0934166,14.6490059 L13.0934166,7.52425315 C13.0934166,7.41350057 13.0474461,7.302748 12.9779796,7.23649422 C12.9095346,7.16925159 12.7951192,7.12475278 12.6796822,7.12475278 L11.8777526,7.12475278 C11.7633371,7.12475278 11.6479001,7.16925159 11.5794552,7.23649422 C11.5110102,7.302748 11.4650397,7.41350057 11.4650397,7.52425315 L11.4650397,14.6490059 C11.4650397,14.7607474 11.5110102,14.8714999 11.5794552,14.9377537 L11.5794552,14.9377537 Z" id="Fill-68"></path>
        </g>
    </g>
</svg>